<svg xmlns="http://www.w3.org/2000/svg" viewBox="0 0 600 80" width="600" height="80" preserveAspectRatio="none"><path fill="#000" fill-rule="evenodd" d="M114.8 35.8Q110.5 36 108 35.9Q105.4 35.8 102.5 36Q99.5 36.3 97.3 36.7Q95.1 37.1 85.5 38Q76 39 73.8 39.6Q71.5 40.2 66.9 40.6Q62.3 41 58.8 40.9Q55.2 40.8 51.2 41.1Q47.2 41.4 44.6 41.3Q42 41.2 36.2 41.5Q30.4 41.8 28.5 42.1Q26.6 42.5 25.2 43Q23.8 43.5 22.1 43.9Q20.5 44.3 16.6 44.8Q12.7 45.2 12.1 45.5Q11.5 45.7 11.1 46.2Q10.7 46.7 10.6 47.3Q10.6 47.9 10.8 48.5Q11.1 49.2 11.6 49.8Q12.2 50.4 13 51Q13.8 51.5 14.7 51.9Q15.6 52.2 16.5 52.4Q17.4 52.5 19.2 52.4Q21.1 52.3 23.1 52.3Q25.2 52.4 31.8 53.3Q38.4 54.3 42.9 54.5Q47.4 54.6 51.3 54.5Q55.2 54.4 58 54.5Q60.8 54.7 66 54.2Q71.3 53.7 75.6 53.5Q79.9 53.3 82.6 53.4Q85.2 53.5 90.5 53Q95.8 52.6 100.2 52.5Q104.5 52.3 107.2 52.5Q109.8 52.6 110.9 52.5Q112.1 52.5 116 52Q120 51.5 124.6 51.2Q129.2 50.9 132.8 50.8Q136.3 50.8 138.2 50.6Q140 50.5 142.3 50Q144.6 49.6 150 49.2Q155.4 48.7 158 48.8Q160.6 48.8 165.7 48.2Q170.8 47.7 174.9 47.5Q179.1 47.4 181.8 47.6Q184.6 47.8 189.8 47.5Q194.9 47.1 199.3 47Q203.7 46.9 206.3 47Q209 47.1 211.8 46.9Q214.7 46.6 216.8 46.2Q219 45.9 223.7 45.5Q228.3 45.1 230.8 45.2Q233.2 45.2 238.3 44.8Q243.5 44.3 247.8 44.2Q252.1 44.1 255.9 44.3Q259.7 44.5 263.9 44.1Q268 43.7 272.3 43.5Q276.6 43.4 280.2 43.5Q283.9 43.7 286.9 43.5Q289.9 43.4 291.6 43.5Q293.4 43.5 296.6 43.8Q299.9 44 305.4 44.9Q310.8 45.7 313.4 45.8Q316 45.8 318.9 46.1Q321.9 46.5 324.5 46.6Q327.1 46.7 330.1 47Q333.2 47.4 338.4 47Q343.5 46.7 347.8 46.6Q352.1 46.5 355.9 46.7Q359.7 46.9 363.7 46.6Q367.7 46.3 373 46.2Q378.4 46.1 381.1 46.2Q383.9 46.3 386.8 46Q389.6 45.8 390.8 45.5Q391.9 45.3 397.4 44.8Q402.9 44.4 405.4 44.4Q408 44.4 412.2 44Q416.5 43.5 420.8 43.3Q425.1 43.1 429.8 43.2Q434.4 43.3 438 42.8Q441.7 42.4 450.2 41.8Q458.7 41.1 460.8 40.8Q462.8 40.5 464.1 40.1Q465.4 39.8 470.5 39Q475.7 38.1 479.9 37.7Q484 37.2 486.4 36.7Q488.7 36.1 492.8 35.5Q496.8 34.8 502 34.3Q507.1 33.8 509.5 33.3Q511.8 32.9 515.8 32.5Q519.7 32.1 520 32Q520.3 31.8 521.1 31.8Q521.9 31.8 523.2 31.6Q524.6 31.3 527.5 31.1Q530.5 30.8 530.9 30.6Q531.2 30.5 532 30.5Q532.7 30.5 533 30.4Q533.4 30.2 534.1 30.2Q534.8 30.2 535.1 30Q535.5 29.9 536.2 29.9Q536.9 29.9 537.2 29.8Q537.5 29.6 539.3 29.5Q541.1 29.4 541.4 29.2Q541.7 29.1 542.5 29.1Q543.3 29.2 543.6 29Q543.9 28.9 544.6 28.9Q545.4 29 545.7 28.8Q546 28.6 546.8 28.7Q547.5 28.8 547.8 28.6Q548.1 28.5 548.9 28.6Q549.7 28.6 550 28.5Q550.2 28.3 550.7 28.4Q551.2 28.5 551.8 28.4Q552.4 28.2 552.9 28.3Q553.4 28.4 554 28.2Q554.6 28.1 555.1 28.2Q555.6 28.3 556.2 28.1Q556.7 27.9 557.2 28Q557.8 28.2 558.3 27.9Q558.9 27.7 559.6 27.9Q560.4 28 560.7 27.8Q561 27.6 561.4 27.8Q561.7 27.9 562.2 27.9Q562.6 28 562.9 27.8Q563.1 27.5 563.7 27.7Q564.3 27.9 564.7 27.9Q565.1 27.8 565.2 27.6Q565.3 27.3 565.9 27.6Q566.5 27.9 566.9 27.8Q567.2 27.7 567.3 27.4Q567.4 27.1 567.6 27.4Q567.9 27.6 568.3 27.7Q568.7 27.8 569 27.8Q569.4 27.7 569.5 27.4Q569.6 27.2 569.4 26.9Q569.2 26.6 568.7 26.4Q568.1 26.2 567.8 26.2Q567.4 26.3 567.3 26.6Q567.3 26.9 567 26.6Q566.7 26.4 566.2 26.2Q565.8 26.1 565.5 26.2Q565.1 26.3 565 26.5Q565 26.7 564.3 26.4Q563.6 26.1 563.2 26.2Q562.9 26.3 562.8 26.4Q562.7 26.5 562 26.2Q561.4 26 560.9 26.2Q560.4 26.4 559.8 26.2Q559.1 26 558.6 26.1Q558.1 26.3 557.5 26.1Q556.8 25.9 556.3 26Q555.9 26.2 555.2 26Q554.6 25.8 554 26Q553.5 26.1 552.9 25.9Q552.3 25.7 551.8 25.9Q551.2 26 550.7 25.9Q550.1 25.7 549.5 25.9Q549 26 548.5 25.9Q547.9 25.7 547.3 25.9Q546.7 26 546.2 25.9Q545.6 25.8 545 25.9Q544.5 26 544 25.9Q543.4 25.8 542.8 25.9Q542.2 26 541.7 25.9Q541.1 25.8 540.5 26Q539.9 26.1 539.4 26Q538.9 25.9 538.2 26Q537.6 26.1 537.1 26Q536.6 25.9 536 26Q535.4 26.2 534.9 26.1Q534.4 26 533.8 26.1Q533.2 26.2 532.7 26.1Q532.1 26.1 531.5 26.2Q530.9 26.3 529.2 26.2Q527.6 26.2 524.7 26.5Q521.7 26.9 516.2 27.2Q510.6 27.5 506.8 27.4Q503 27.4 498.9 27.6Q494.7 27.9 486.4 28Q478.2 28.1 473.9 28.5Q469.5 28.9 464.1 29.2Q458.7 29.6 456.1 29.5Q453.5 29.4 448.4 29.6Q443.3 29.9 439 29.8Q434.6 29.6 430.5 29.2Q426.4 28.9 417.9 29.3Q409.3 29.7 405.6 29.6Q402 29.5 397.8 30Q393.6 30.5 389.3 30.6Q385 30.8 381.2 30.5Q377.5 30.2 372.4 30.5Q367.4 30.8 365.9 30.7Q364.3 30.6 361.5 30.6Q358.7 30.7 355.9 30.4Q353 30.2 347.9 30.6Q342.8 31.1 338.5 31.1Q334.2 31.2 330.4 30.9Q326.5 30.7 322.6 30.9Q318.7 31.2 317.1 31.1Q315.6 31 312.9 31.1Q310.2 31.1 306.3 30.8Q302.4 30.4 298.6 30.5Q294.8 30.7 293.2 30.6Q291.7 30.5 288.9 30.6Q286.1 30.6 282.2 30.2Q278.3 29.9 274.2 30.2Q270.2 30.5 265.8 30.6Q261.3 30.6 257.6 30.4Q253.9 30.2 248.8 30.6Q243.7 31 239.4 31Q235.2 31 233.5 30.9Q231.8 30.7 229.6 30.6Q227.3 30.6 223.2 31Q219.1 31.3 214.6 31.5Q210.1 31.6 207.6 31.6Q205 31.5 202.2 31.7Q199.4 31.9 197.2 32.3Q195.1 32.7 190.6 33Q186 33.2 182.3 33Q178.6 32.8 174.6 33Q170.7 33.3 168.1 33.1Q165.4 33 163.7 33Q161.9 33.1 157.9 32.8Q154 32.5 144.3 33.4Q134.6 34.2 132.1 34.2Q129.6 34.2 127.8 34.4Q125.9 34.5 122.5 35Q119.1 35.5 114.8 35.8ZM586 26Q585.4 26 585.3 26.1Q585.2 26.3 585.5 26.6Q585.8 26.9 586.2 27Q586.6 27.1 586.8 27Q587 26.8 587 26.6Q586.9 26.4 586.7 26.2Q586.5 26 586 26ZM583.7 26.1Q583.1 26.1 583 26.3Q583 26.5 583.2 26.8Q583.5 27.1 583.9 27.2Q584.2 27.3 584.5 27.1Q584.8 27 584.8 26.8Q584.7 26.5 584.5 26.3Q584.3 26.1 583.7 26.1ZM581.5 26.2Q580.9 26.2 580.8 26.5Q580.8 26.8 581 27Q581.3 27.2 581.8 27.3Q582.3 27.4 582.5 27.2Q582.6 27.1 582.5 26.9Q582.5 26.6 582.3 26.4Q582.1 26.2 581.5 26.2ZM579.3 26.2Q578.7 26.2 578.6 26.4Q578.5 26.6 578.8 27Q579.1 27.3 579.5 27.4Q579.8 27.5 580.1 27.4Q580.5 27.2 580.5 26.9Q580.4 26.7 580.1 26.5Q579.9 26.3 579.3 26.2ZM576.7 26.2Q576.4 26.3 576.4 26.6Q576.4 26.9 576.6 27.1Q576.9 27.4 577.2 27.5Q577.6 27.6 578 27.5Q578.3 27.3 578.2 27.1Q578.2 26.8 578 26.6Q577.7 26.4 577.4 26.3Q577 26.2 576.7 26.2ZM574.5 26.2Q574.2 26.3 574.2 26.6Q574.1 27 574.4 27.2Q574.6 27.4 575.2 27.5Q575.7 27.6 575.9 27.5Q576.1 27.3 576 27.1Q576 26.8 575.8 26.6Q575.5 26.4 575.1 26.3Q574.8 26.2 574.5 26.2ZM572.2 26.3Q572 26.4 571.9 26.6Q571.8 26.8 572.1 27.1Q572.4 27.5 573 27.6Q573.5 27.7 573.7 27.5Q573.9 27.4 573.8 27.1Q573.8 26.9 573.5 26.6Q573.3 26.4 572.9 26.3Q572.5 26.2 572.2 26.3ZM570 26.3Q569.7 26.4 569.6 26.6Q569.5 26.8 569.9 27.1Q570.2 27.5 570.8 27.6Q571.3 27.7 571.5 27.5Q571.7 27.4 571.7 27.1Q571.6 26.9 571.4 26.6Q571.1 26.4 570.7 26.3Q570.3 26.2 570 26.3Z"/></svg>
