<svg xmlns="http://www.w3.org/2000/svg" viewBox="0 0 600 80" width="600" height="80" preserveAspectRatio="none"><path fill="#000" fill-rule="evenodd" d="M108 41.8Q105 42.2 101.7 43.1Q98.3 44 96.4 44.4Q94.5 44.7 90.8 45.2Q87.2 45.8 83.8 46Q80.4 46.1 76.4 46.7Q72.4 47.3 67.7 47.4Q63 47.5 58.4 47.4Q53.7 47.2 51.7 47.4Q49.6 47.5 42 46.9Q34.5 46.3 28.1 46.3Q21.6 46.4 16.8 45.9Q12 45.4 11.2 45.5Q10.5 45.7 9.9 46Q9.3 46.4 9 46.9Q8.7 47.4 8.7 48Q8.7 48.6 9.1 49.2Q9.4 49.8 9.9 50.3Q10.5 50.9 11.3 51.3Q12.1 51.7 17.6 52.9Q23 54.1 26.4 55.3Q29.9 56.5 32.2 57.1Q34.6 57.7 38.4 58.4Q42.2 59 46.7 59.5Q51.2 59.9 54.4 60.4Q57.5 60.9 60.2 61Q63 61.1 68.7 60.9Q74.4 60.7 77.5 60.5Q80.6 60.2 83.2 60.2Q85.9 60.1 87.8 59.9Q89.7 59.7 97.9 58Q106.1 56.4 109.2 56Q112.2 55.6 114.6 55Q117 54.5 119 53.8Q121 53.1 124.3 52.1Q127.6 51.1 129.6 50.4Q131.5 49.6 135.8 48.4Q140.2 47.2 143 46.1Q145.8 45 150.2 43.7Q154.5 42.4 157.9 41.8Q161.4 41.2 170.6 39.1Q179.7 37 182.8 36.7Q185.9 36.4 190.2 35.6Q194.5 34.8 198.1 34.6Q201.6 34.4 209.9 35.1Q218.3 35.9 222.8 36.5Q227.3 37.2 230.8 38Q234.3 38.9 237.6 39.3Q240.9 39.7 245.4 40.5Q250 41.3 257.9 43.4Q265.8 45.5 270.1 47Q274.5 48.4 277.5 49.5Q280.5 50.7 283.2 51.5Q286 52.2 290.7 53.2Q295.4 54.1 298.6 54.5Q301.8 55 305.2 55.7Q308.6 56.4 312.1 56.7Q315.6 57 321.1 57.7Q326.5 58.4 329.8 59.1Q333.1 59.8 340.4 60.1Q347.7 60.5 355.2 60.3Q362.8 60.1 371.9 58.5Q380.9 57 385.1 56.5Q389.3 56 392.9 55.2Q396.4 54.4 405.4 52.6Q414.5 50.9 422.8 48.1Q431.1 45.3 435.7 44.2Q440.3 43.2 442.4 42.5Q444.4 41.7 446 41.3Q447.6 40.9 451.6 40Q455.5 39.2 458.6 38.9Q461.8 38.6 466.1 37.7Q470.4 36.8 474.9 36.2Q479.3 35.7 482.8 35.8Q486.3 35.8 489.5 35.5Q492.6 35.2 497 35.2Q501.4 35.2 511.1 35.9Q520.7 36.6 524.2 37Q527.8 37.4 531 38Q534.3 38.6 543.1 39.8Q551.9 40.9 556.1 41.7Q560.3 42.5 562.6 42.8Q564.9 43.1 565.4 43.3Q565.9 43.5 566.3 43.5Q566.7 43.4 567.2 43.6Q567.7 43.8 568.2 43.8Q568.6 43.8 569.1 44Q569.6 44.2 570 44.2Q570.5 44.1 571 44.3Q571.4 44.5 571.8 44.5Q572.3 44.4 572.8 44.6Q573.3 44.9 573.8 44.8Q574.2 44.8 574.7 45Q575.2 45.3 575.7 45.2Q576.1 45.1 576.5 45.4Q577 45.7 577.5 45.6Q577.9 45.5 578.4 45.8Q578.9 46.1 579.3 46Q579.8 45.8 580 46Q580.1 46.3 580.4 46.5Q580.7 46.6 581 46.5Q581.3 46.5 581.5 46.4Q581.6 46.2 581.8 46.5Q582 46.8 582.3 46.9Q582.6 47 582.9 47Q583.2 47 583.4 46.8Q583.5 46.6 583.5 46.4Q583.4 46.2 583.1 46Q582.9 45.9 582.5 45.8Q582.2 45.8 582 46Q581.7 46.1 581.4 45.8Q581 45.4 580.7 45.3Q580.4 45.3 580.1 45.5Q579.8 45.6 579.5 45.2Q579.2 44.9 578.6 45Q578 45 577.6 44.7Q577.3 44.4 576.8 44.5Q576.2 44.5 575.9 44.2Q575.5 43.9 575 43.9Q574.4 43.9 574 43.7Q573.7 43.5 573.1 43.5Q572.5 43.4 572.2 43.2Q571.9 43 571.3 43Q570.7 42.9 570.4 42.7Q570 42.5 569.4 42.5Q568.8 42.4 568.5 42.2Q568.2 42 567.6 42Q567 41.9 566.7 41.7Q566.4 41.5 565.8 41.4Q565.2 41.3 563.1 40.6Q561 40 556.6 38.9Q552.3 37.8 544 35.5Q535.8 33.1 523.8 30Q511.7 26.9 509.8 26.5Q507.9 26.2 502.2 25.6Q496.5 25.1 489.3 24.7Q482.1 24.3 478 24.6Q473.9 24.9 471.3 24.9Q468.7 24.9 462.8 25.2Q456.9 25.5 455 25.8Q453.1 26 449.6 26.8Q446.1 27.6 444 28Q441.9 28.3 435.8 29.8Q429.7 31.2 427.9 31.8Q426.1 32.3 423.3 33.6Q420.5 34.9 416.1 36.3Q411.6 37.7 407.1 38.8Q402.6 39.9 399.9 40.8Q397.2 41.7 389.2 43.2Q381.2 44.8 378 45.6Q374.9 46.5 372.9 46.9Q370.8 47.3 367.2 47.8Q363.6 48.3 360.1 48.4Q356.7 48.5 354.4 48.8Q352.1 49 350.4 49Q348.6 49 345 48.6Q341.3 48.3 337.1 47.5Q332.9 46.8 328.8 46.4Q324.6 46 320 45.2Q315.3 44.4 311.9 43.6Q308.4 42.9 304.2 42.5Q300.1 42.1 296.5 41.3Q292.9 40.5 288.4 39.2Q284 37.9 281.1 37.3Q278.2 36.8 269.2 34.1Q260.2 31.5 256.2 30.9Q252.2 30.2 243.1 28.1Q234.1 26.1 230.7 25.8Q227.3 25.4 224.1 24.9Q220.9 24.3 216.2 23.6Q211.4 23 207.9 22.8Q204.3 22.6 197.7 22.9Q191 23.1 185.2 23.6Q179.5 24.2 175.4 25.2Q171.4 26.2 162.1 28.2Q152.8 30.3 150 31.2Q147.2 32.2 141.8 33.6Q136.3 35 132.4 35.8Q128.6 36.6 124.9 37.8Q121.2 39 116.2 40.1Q111.1 41.3 108 41.8ZM584.2 46.5Q583.6 46.5 583.5 46.6Q583.5 46.8 583.8 47.1Q584.1 47.4 584.4 47.5Q584.7 47.5 585 47.3Q585.3 47.1 585.2 46.9Q585.2 46.7 585 46.5Q584.7 46.4 584.2 46.5ZM586 47Q585.5 47 585.5 47.2Q585.5 47.5 585.8 47.6Q586 47.8 586.3 47.8Q586.6 47.9 586.9 47.8Q587.1 47.6 587 47.4Q587 47.2 586.8 47Q586.5 46.9 586 47ZM587.7 47.5Q587.3 47.6 587.3 47.8Q587.4 48 587.8 48.2Q588.1 48.4 588.5 48.2Q588.9 48 588.8 47.9Q588.8 47.7 588.5 47.5Q588.1 47.3 587.7 47.5ZM589.5 48Q589.1 48.1 589.2 48.3Q589.2 48.5 589.6 48.6Q590 48.8 590.4 48.6Q590.8 48.5 590.7 48.4Q590.6 48.2 590.2 48Q589.9 47.8 589.5 48Z"/></svg>
